<?xml version="1.0" encoding="utf-8"?>
<!DOCTYPE svg PUBLIC "-//W3C//DTD SVG 1.1//EN" "http://www.w3.org/Graphics/SVG/1.1/DTD/svg11.dtd">
<svg version="1.1" baseProfile="full"
 xmlns="http://www.w3.org/2000/svg"
 xmlns:xlink="http://www.w3.org/1999/xlink"
 xmlns:ev="http://www.w3.org/2001/xml-events" 
  height="9px" 
  width="9px" 
>
<path fill="rgb( 102, 102, 102 )"
 d="M5.51999999999998,4.48099999999999 C5.51999999999998,4.48099999999999 7.76999999999998,6.73099999999999 7.76999999999998,6.73099999999999 C8.05700000000002,7.01800000000003 8.05700000000002,7.48299999999995 7.76999999999998,7.76999999999998 C7.48299999999995,8.05700000000002 7.01800000000003,8.05700000000002 6.73099999999999,7.76999999999998 C6.73099999999999,7.76999999999998 4.48099999999999,5.51999999999998 4.48099999999999,5.51999999999998 C4.48099999999999,5.51999999999998 2.23099999999999,7.76999999999998 2.23099999999999,7.76999999999998 C1.94500000000005,8.05700000000002 1.48000000000002,8.05700000000002 1.19299999999998,7.76999999999998 C0.90599999999995,7.48299999999995 0.90599999999995,7.01800000000003 1.19299999999998,6.73099999999999 C1.19299999999998,6.73099999999999 3.44299999999998,4.48099999999999 3.44299999999998,4.48099999999999 C3.44299999999998,4.48099999999999 1.19299999999998,2.23099999999999 1.19299999999998,2.23099999999999 C0.90599999999995,1.94399999999996 0.90599999999995,1.48000000000002 1.19299999999998,1.19299999999998 C1.48000000000002,0.90599999999995 1.94500000000005,0.90599999999995 2.23099999999999,1.19299999999998 C2.23099999999999,1.19299999999998 4.48099999999999,3.44299999999998 4.48099999999999,3.44299999999998 C4.48099999999999,3.44299999999998 6.73099999999999,1.19299999999998 6.73099999999999,1.19299999999998 C7.01800000000003,0.90599999999995 7.48299999999995,0.90599999999995 7.76999999999998,1.19299999999998 C8.05700000000002,1.48000000000002 8.05700000000002,1.94399999999996 7.76999999999998,2.23099999999999 C7.76999999999998,2.23099999999999 5.51999999999998,4.48099999999999 5.51999999999998,4.48099999999999 Z "/>
</svg>
