<?xml version="1.0" encoding="utf-8"?>
<!DOCTYPE svg PUBLIC "-//W3C//DTD SVG 1.1//EN" "http://www.w3.org/Graphics/SVG/1.1/DTD/svg11.dtd">
<svg version="1.1" baseProfile="full"
 xmlns="http://www.w3.org/2000/svg"
 xmlns:xlink="http://www.w3.org/1999/xlink"
 xmlns:ev="http://www.w3.org/2001/xml-events" 
  height="7px" 
  width="5px" 
>
<path fill="rgb( 141, 198, 63 )"
 d="M5,3.5 C5,3.5 2.28999999999996,6.999 2.28999999999996,6.999 C2.28999999999996,6.999 1.90800000000002,6.632 1.90800000000002,6.632 C1.90800000000002,6.632 1.62300000000005,6.999 1.62300000000005,6.999 C1.62300000000005,6.999 0,6.4 0,6.4 C0,6.4 2.24599999999998,3.5 2.24599999999998,3.5 C2.24599999999998,3.5 0,0.6 0,0.6 C0,0.6 1.62300000000005,0 1.62300000000005,0 C1.62300000000005,0 1.90800000000002,0.368 1.90800000000002,0.368 C1.90800000000002,0.368 2.28999999999996,0 2.28999999999996,0 C2.28999999999996,0 5,3.5 5,3.5 Z "/>
</svg>
