<?xml version="1.0" encoding="utf-8"?>
<!DOCTYPE svg PUBLIC "-//W3C//DTD SVG 1.1//EN" "http://www.w3.org/Graphics/SVG/1.1/DTD/svg11.dtd">
<svg version="1.1" baseProfile="full"
 xmlns="http://www.w3.org/2000/svg"
 xmlns:xlink="http://www.w3.org/1999/xlink"
 xmlns:ev="http://www.w3.org/2001/xml-events" 
  height="32px" 
  width="32px" 
>
<path opacity="0.702" fill="rgb( 255, 255, 255 )"
 d="M16,31.001 C7.71800000000002,31.001 0.99900000000002,24.282 0.99900000000002,15.992 C0.99900000000002,7.709 7.71800000000002,0.99900000000002 16,0.99900000000002 C24.286,0.99900000000002 31.001,7.709 31.001,15.992 C31.001,24.282 24.286,31.001 16,31.001 ZM16.004,4.39100000000002 C9.59100000000001,4.39100000000002 4.387,9.584 4.387,15.992 C4.387,22.413 9.589,27.609 16.004,27.609 C22.415,27.609 27.613,22.413 27.613,15.992 C27.613,9.584 22.415,4.39100000000002 16.004,4.39100000000002 ZM14.45,11.626 C14.45,11.626 17.551,11.626 17.551,11.626 C17.551,11.626 17.551,24.506 17.551,24.506 C17.551,24.506 14.45,24.506 14.45,24.506 C14.45,24.506 14.45,11.626 14.45,11.626 ZM15.999,10.595 C15.143,10.595 14.45,9.90100000000001 14.45,9.04500000000002 C14.45,8.18799999999999 15.143,7.495 15.999,7.495 C16.856,7.495 17.55,8.18799999999999 17.55,9.04500000000002 C17.55,9.90100000000001 16.856,10.595 15.999,10.595 Z "/>
</svg>
